<svg id="edxTJajCFMN1" xmlns="http://www.w3.org/2000/svg" xmlns:xlink="http://www.w3.org/1999/xlink" viewBox="0 0 53 31" shape-rendering="geometricPrecision" text-rendering="geometricPrecision"><path d="M4.40102,26.02538c0-3.48013-.90734-8.98038.40609-12.26396c2.23322-5.58304,10.32912-7.5389,14.61929-3.24873c4.27099,4.27099,2.11942,16.43171-3.16751,19.73604-1.02233.63895-2.89499-1.95999-2.76142-2.76142.53284-3.19705,5.98609-14.98147-.32487-16.24365-2.6794-.53588-4.42587,5.46272-3.24873,7.22843.68016,1.02025,8.21068-.90359,4.79188,3.65482-.86459,1.15279-3.99249-.11223-5.11675.73096-.88982.66737-.03478,2.27174-.48731,3.08629-.61686,1.11034-4.79188.66497-4.79188-.48731" transform="translate(-3.573603 0.649748)" stroke="#000" stroke-width="0.5"/><path d="M21.53807,4.01523c.981311,6.429996,3.765118,12.368057,5.035533,18.84264.281431,1.434292,1.26579,5.846198,1.926396,5.92894c10.782991,1.350593,6.171098-1.657478,8.225888-4.223359.443543-.553866,1.309103-7.839161,2.030463-7.959391.33143-.05524,1.35231,3.49654,1.46193,3.89848c1.24183,4.55339-1.033462,7.87817,4.466998,7.87817.70875,0,3.157583.256888,3.654823-.406092.78442-1.0459,1.513539-3.816928,1.868039-5.116748c1.27719-4.68301,3.33482-8.54254,4.87309-13.15735.35496-1.06489,2.13648-5.14837,1.62437-6.17259-.22321-.44642-6.09425-.52084-6.49746-.16244-2.17975,1.93756-1.880854,6.95052-2.599004,9.58376-.10923.4005-.614516,4.62944-.974596,4.62944-.51164,0-1.858883-5.745557-1.949262-6.33503-1.255166-8.186453,1.052189-8.462377-5.116751-7.71573-5.240092-1.264592-3.967548,1.730446-4.548223,7.71573-.047476.489362-1.432154,6.0176-1.461914,6.01016-.67157-.16789-1.983065-6.879888-2.192909-7.5533-.954293-3.062426,1.671708-9.105128-10.314701-5.36041" transform="translate(-5.197968-2.488998)" fill="#54be6e" stroke="#54be6e" stroke-width="0.5"/></svg>
